<svg width="17" height="17" viewBox="0 0 17 17" fill="none" xmlns="http://www.w3.org/2000/svg">
<path d="M2.11377 2.06671L2.1665 2.10382L14.7534 14.6907C14.8048 14.7403 14.8152 14.838 14.7466 14.9066C14.698 14.9551 14.6333 14.967 14.5767 14.9427L14.5239 14.9066L1.94385 2.32648C1.87911 2.26174 1.87911 2.16856 1.94385 2.10382C1.99244 2.05523 2.05712 2.04236 2.11377 2.06671Z" fill="white" stroke="black"/>
<mask id="path-2-inside-1_45_982" fill="white">
<path d="M15.9146 17C15.6315 17 15.3602 16.8938 15.1478 16.6814L0.318529 1.83513C0.117974 1.6345 0 1.36307 0 1.06803C0 0.772995 0.106176 0.513363 0.318529 0.300937C0.719639 -0.100312 1.43928 -0.100312 1.84039 0.300937L16.6815 15.159C16.882 15.3596 17 15.631 17 15.9143C17 16.1975 16.8938 16.4689 16.6815 16.6814C16.4809 16.882 16.2096 17 15.9146 17ZM1.07356 0.595974C0.943789 0.595974 0.825815 0.643179 0.731436 0.737591C0.637058 0.832003 0.589868 0.950017 0.589868 1.06803C0.589868 1.18605 0.637058 1.31586 0.731436 1.41027L15.5843 16.2565C15.7613 16.4335 16.0798 16.4335 16.2568 16.2565C16.3511 16.1621 16.3983 16.0441 16.3983 15.9143C16.3983 15.7844 16.3511 15.6664 16.2568 15.5838L1.41568 0.737591C1.3213 0.643179 1.20333 0.595974 1.07356 0.595974Z"/>
</mask>
<path d="M15.9146 17C15.6315 17 15.3602 16.8938 15.1478 16.6814L0.318529 1.83513C0.117974 1.6345 0 1.36307 0 1.06803C0 0.772995 0.106176 0.513363 0.318529 0.300937C0.719639 -0.100312 1.43928 -0.100312 1.84039 0.300937L16.6815 15.159C16.882 15.3596 17 15.631 17 15.9143C17 16.1975 16.8938 16.4689 16.6815 16.6814C16.4809 16.882 16.2096 17 15.9146 17ZM1.07356 0.595974C0.943789 0.595974 0.825815 0.643179 0.731436 0.737591C0.637058 0.832003 0.589868 0.950017 0.589868 1.06803C0.589868 1.18605 0.637058 1.31586 0.731436 1.41027L15.5843 16.2565C15.7613 16.4335 16.0798 16.4335 16.2568 16.2565C16.3511 16.1621 16.3983 16.0441 16.3983 15.9143C16.3983 15.7844 16.3511 15.6664 16.2568 15.5838L1.41568 0.737591C1.3213 0.643179 1.20333 0.595974 1.07356 0.595974Z" fill="#070707"/>
<path d="M15.1478 16.6814L14.4403 17.3881L14.4406 17.3883L15.1478 16.6814ZM0.318529 1.83513L1.02604 1.12842L1.02576 1.12814L0.318529 1.83513ZM1.84039 0.300937L2.5479 -0.405766L2.54762 -0.406047L1.84039 0.300937ZM16.6815 15.159L15.974 15.8657L15.9742 15.866L16.6815 15.159ZM16.6815 16.6814L17.3887 17.3883L16.6815 16.6814ZM0.731436 1.41027L0.024207 2.11726L0.0244879 2.11754L0.731436 1.41027ZM15.5843 16.2565L16.2915 15.5495L16.2913 15.5492L15.5843 16.2565ZM16.2568 16.2565L16.964 16.9635L16.2568 16.2565ZM16.2568 15.5838L15.5495 16.2908L15.5731 16.3144L15.5981 16.3363L16.2568 15.5838ZM1.41568 0.737591L2.12291 0.030607V0.030607L1.41568 0.737591ZM15.9146 16C15.8989 16 15.8893 15.9972 15.8834 15.9948C15.878 15.9926 15.8684 15.9878 15.855 15.9744L14.4406 17.3883C14.8449 17.7928 15.3725 18 15.9146 18V16ZM15.8553 15.9747L1.02604 1.12842L-0.388982 2.54183L14.4403 17.3881L15.8553 15.9747ZM1.02576 1.12814C1.01572 1.1181 1.00959 1.10821 1.00594 1.09951C1.00245 1.09122 1 1.08124 1 1.06803H-1C-1 1.63579 -0.771298 2.15938 -0.388701 2.54211L1.02576 1.12814ZM1 1.06803C1 1.05446 1.0012 1.04615 1.00198 1.04207C1.00274 1.03812 1.00344 1.03636 1.0037 1.03574C1.00395 1.03513 1.00478 1.03319 1.0073 1.02947C1.00989 1.02564 1.01537 1.01831 1.02576 1.00792L-0.388701 -0.406047C-0.788917 -0.00569154 -1 0.508409 -1 1.06803H1ZM1.02576 1.00792C1.01972 1.01397 1.0187 1.01221 1.02875 1.00833C1.03956 1.00417 1.05732 1 1.07946 1C1.1016 1 1.11936 1.00417 1.13017 1.00833C1.14022 1.01221 1.1392 1.01397 1.13316 1.00792L2.54762 -0.406047C1.75596 -1.19798 0.402962 -1.19798 -0.388701 -0.406047L1.02576 1.00792ZM1.13288 1.00764L15.974 15.8657L17.389 14.4523L2.5479 -0.405766L1.13288 1.00764ZM15.9742 15.866C15.997 15.8887 16 15.9096 16 15.9143H18C18 15.3525 17.767 14.8305 17.3887 14.452L15.9742 15.866ZM16 15.9143C16 15.9302 15.9972 15.9399 15.9948 15.9458C15.9925 15.9513 15.9876 15.961 15.9742 15.9744L17.3887 17.3883C17.793 16.9839 18 16.4563 18 15.9143H16ZM15.9742 15.9744C15.9642 15.9844 15.9543 15.9905 15.9457 15.9941C15.9376 15.9976 15.9277 16 15.9146 16V18C16.4825 18 17.0061 17.7711 17.3887 17.3883L15.9742 15.9744ZM1.07356 -0.404026C0.683363 -0.404026 0.309534 -0.254819 0.024207 0.030607L1.43867 1.44458C1.39596 1.4873 1.33877 1.52782 1.2689 1.5565C1.19932 1.58505 1.13155 1.59597 1.07356 1.59597V-0.404026ZM0.024207 0.030607C-0.251689 0.306598 -0.410132 0.676569 -0.410132 1.06803H1.58987C1.58987 1.22347 1.5258 1.35741 1.43867 1.44458L0.024207 0.030607ZM-0.410132 1.06803C-0.410132 1.4333 -0.269922 1.82303 0.024207 2.11726L1.43867 0.70329C1.54404 0.808698 1.58987 0.938793 1.58987 1.06803H-0.410132ZM0.0244879 2.11754L14.8774 16.9638L16.2913 15.5492L1.43839 0.703009L0.0244879 2.11754ZM14.8771 16.9635C15.4446 17.5312 16.3965 17.5312 16.964 16.9635L15.5495 15.5495C15.6738 15.4252 15.8171 15.3893 15.9205 15.3893C16.024 15.3893 16.1673 15.4252 16.2915 15.5495L14.8771 16.9635ZM16.964 16.9635C17.2493 16.6781 17.3983 16.3043 17.3983 15.9143H15.3983C15.3983 15.8564 15.4092 15.7887 15.4377 15.7192C15.4664 15.6494 15.5068 15.5922 15.5495 15.5495L16.964 16.9635ZM17.3983 15.9143C17.3983 15.5376 17.2561 15.1296 16.9154 14.8314L15.5981 16.3363C15.4462 16.2033 15.3983 16.0313 15.3983 15.9143H17.3983ZM16.964 14.8768L2.12291 0.030607L0.708454 1.44458L15.5495 16.2908L16.964 14.8768ZM2.12291 0.030607C1.83759 -0.254819 1.46376 -0.404026 1.07356 -0.404026V1.59597C1.01557 1.59597 0.947801 1.58505 0.878225 1.5565C0.808346 1.52782 0.751159 1.4873 0.708454 1.44458L2.12291 0.030607Z" fill="black" mask="url(#path-2-inside-1_45_982)"/>
<path d="M14.5239 2.10382C14.5887 2.03912 14.6819 2.0391 14.7466 2.10382C14.7951 2.15245 14.8072 2.21712 14.7827 2.27374L14.7466 2.32648L2.1665 14.9066C2.10183 14.9712 2.00856 14.9711 1.94385 14.9066C1.89238 14.8551 1.88541 14.7873 1.90674 14.7357L1.93701 14.6907L14.5239 2.10382Z" fill="white" stroke="black"/>
<mask id="path-5-inside-2_45_982" fill="white">
<path d="M1.0846 17C0.801664 17 0.530513 16.8937 0.318308 16.6811C0.117892 16.4804 0 16.2088 0 15.9135C0 15.6183 0.106103 15.3585 0.318308 15.1577L15.1609 0.301146C15.5617 -0.100382 16.2809 -0.100382 16.6817 0.301146C16.8821 0.50191 17 0.773532 17 1.05696C17 1.3404 16.8939 1.61202 16.6817 1.82459L1.8509 16.6811C1.65049 16.8819 1.37933 17 1.0846 17ZM15.9154 0.584578C15.7857 0.584578 15.6678 0.631817 15.5735 0.726294L0.754508 15.5828C0.660194 15.6773 0.613037 15.7954 0.613037 15.9135C0.613037 16.0316 0.660194 16.1615 0.754508 16.256C0.931345 16.4331 1.24965 16.4331 1.42649 16.256L16.2573 1.39944C16.3516 1.30497 16.3988 1.18687 16.3988 1.05696C16.3988 0.927058 16.3516 0.808961 16.2573 0.726294C16.163 0.631817 16.0451 0.584578 15.9272 0.584578H15.9154Z"/>
</mask>
<path d="M1.0846 17C0.801664 17 0.530513 16.8937 0.318308 16.6811C0.117892 16.4804 0 16.2088 0 15.9135C0 15.6183 0.106103 15.3585 0.318308 15.1577L15.1609 0.301146C15.5617 -0.100382 16.2809 -0.100382 16.6817 0.301146C16.8821 0.50191 17 0.773532 17 1.05696C17 1.3404 16.8939 1.61202 16.6817 1.82459L1.8509 16.6811C1.65049 16.8819 1.37933 17 1.0846 17ZM15.9154 0.584578C15.7857 0.584578 15.6678 0.631817 15.5735 0.726294L0.754508 15.5828C0.660194 15.6773 0.613037 15.7954 0.613037 15.9135C0.613037 16.0316 0.660194 16.1615 0.754508 16.256C0.931345 16.4331 1.24965 16.4331 1.42649 16.256L16.2573 1.39944C16.3516 1.30497 16.3988 1.18687 16.3988 1.05696C16.3988 0.927058 16.3516 0.808961 16.2573 0.726294C16.163 0.631817 16.0451 0.584578 15.9272 0.584578H15.9154Z" fill="#070707"/>
<path d="M0.318308 16.6811L-0.389412 17.3876L0.318308 16.6811ZM0.318308 15.1577L1.00556 15.8841L1.01579 15.8744L1.02575 15.8645L0.318308 15.1577ZM15.1609 0.301146L15.8683 1.00792L15.8686 1.00764L15.1609 0.301146ZM16.6817 1.82459L15.974 1.1181L16.6817 1.82459ZM1.8509 16.6811L2.55862 17.3876L1.8509 16.6811ZM15.5735 0.726294L14.8658 0.0198007L14.8655 0.0200823L15.5735 0.726294ZM0.754508 15.5828L1.46223 16.2893L1.46251 16.2891L0.754508 15.5828ZM0.754508 16.256L1.46223 15.5495L0.754508 16.256ZM1.42649 16.256L2.13421 16.9625L1.42649 16.256ZM16.2573 1.39944L15.5496 0.692951L16.2573 1.39944ZM16.2573 0.726294L15.5496 1.43279L15.5731 1.45635L15.5981 1.4783L16.2573 0.726294ZM1.0846 16C1.06914 16 1.05978 15.9973 1.05413 15.995C1.04892 15.9928 1.03941 15.9881 1.02603 15.9746L-0.389412 17.3876C0.0146454 17.7924 0.542247 18 1.0846 18V16ZM1.02603 15.9746C1.01599 15.9646 1.0098 15.9546 1.00607 15.9457C1.00251 15.9373 1 15.927 1 15.9135H-1C-1 16.481 -0.771728 17.0047 -0.389412 17.3876L1.02603 15.9746ZM1 15.9135C1 15.8997 1.00123 15.8914 1.00192 15.8878C1.0026 15.8843 1.00299 15.884 1.00226 15.8857C1.0015 15.8875 1.00055 15.8892 0.999987 15.89C0.999462 15.8907 1.00074 15.8887 1.00556 15.8841L-0.368945 14.4313C-0.791958 14.8315 -1 15.3592 -1 15.9135H1ZM1.02575 15.8645L15.8683 1.00792L14.4534 -0.405628L-0.389131 14.4509L1.02575 15.8645ZM15.8686 1.00764C15.8626 1.0137 15.8615 1.01202 15.8713 1.00822C15.8819 1.00412 15.8994 1 15.9213 1C15.9432 1 15.9607 1.00412 15.9713 1.00822C15.9811 1.01202 15.98 1.0137 15.974 1.00764L17.3894 -0.405347C16.5979 -1.19822 15.2447 -1.19822 14.4532 -0.405347L15.8686 1.00764ZM15.974 1.00764C15.9967 1.03044 16 1.05161 16 1.05696H18C18 0.495454 17.7675 -0.0266219 17.3894 -0.405347L15.974 1.00764ZM16 1.05696C16 1.07314 15.9972 1.08313 15.9946 1.08928C15.9923 1.09497 15.9874 1.10469 15.974 1.1181L17.3894 2.53108C17.7934 2.1264 18 1.59871 18 1.05696H16ZM15.974 1.1181L1.14318 15.9746L2.55862 17.3876L17.3894 2.53108L15.974 1.1181ZM1.14318 15.9746C1.13315 15.9847 1.12338 15.9907 1.11496 15.9943C1.10696 15.9976 1.09737 16 1.0846 16V18C1.65274 18 2.17627 17.7706 2.55862 17.3876L1.14318 15.9746ZM15.9154 -0.415422C15.5248 -0.415422 15.1509 -0.265851 14.8658 0.0198008L16.2812 1.43279C16.2386 1.47553 16.1813 1.51617 16.1113 1.54494C16.0416 1.5736 15.9736 1.58458 15.9154 1.58458V-0.415422ZM14.8655 0.0200823L0.0465067 14.8766L1.46251 16.2891L16.2815 1.43251L14.8655 0.0200823ZM0.0467876 14.8763C-0.228901 15.1525 -0.386963 15.5224 -0.386963 15.9135H1.61304C1.61304 16.0684 1.54929 16.2021 1.46223 16.2893L0.0467876 14.8763ZM-0.386963 15.9135C-0.386963 16.2784 -0.247095 16.6681 0.0467876 16.9625L1.46223 15.5495C1.56748 15.6549 1.61304 15.7848 1.61304 15.9135H-0.386963ZM0.0467876 16.9625C0.614289 17.531 1.56671 17.531 2.13421 16.9625L0.718771 15.5495C0.843023 15.425 0.986516 15.3888 1.0905 15.3888C1.19448 15.3888 1.33798 15.425 1.46223 15.5495L0.0467876 16.9625ZM2.13421 16.9625L16.965 2.10594L15.5496 0.692951L0.718771 15.5495L2.13421 16.9625ZM16.965 2.10594C17.2501 1.82036 17.3988 1.44663 17.3988 1.05696H15.3988C15.3988 0.999311 15.4096 0.931847 15.438 0.862497C15.4665 0.792833 15.5069 0.735703 15.5496 0.692951L16.965 2.10594ZM17.3988 1.05696C17.3988 0.680704 17.2569 0.272693 16.9164 -0.0257163L15.5981 1.4783C15.4463 1.34523 15.3988 1.17341 15.3988 1.05696H17.3988ZM16.965 0.0198008C16.6893 -0.256403 16.3192 -0.415422 15.9272 -0.415422V1.58458C15.7709 1.58458 15.6367 1.52004 15.5496 1.43279L16.965 0.0198008ZM15.9272 -0.415422H15.9154V1.58458H15.9272V-0.415422Z" fill="black" mask="url(#path-5-inside-2_45_982)"/>
<path d="M8.33984 0.910004C12.5316 0.910004 15.9296 4.30808 15.9297 8.49985C15.9297 12.6917 12.5317 16.0897 8.33984 16.0897C4.14807 16.0896 0.75 12.6916 0.75 8.49985C0.750085 4.30813 4.14813 0.910088 8.33984 0.910004Z" fill="white" stroke="black"/>
<mask id="path-8-inside-3_45_982" fill="white">
<path d="M8.34 16.84C3.74 16.84 0 13.1 0 8.5C0 3.9 3.74 0.160004 8.34 0.160004C12.94 0.160004 16.68 3.9 16.68 8.5C16.68 13.1 12.94 16.84 8.34 16.84ZM8.34 0.670004C4.02 0.670004 0.51 4.18 0.51 8.5C0.51 12.82 4.02 16.33 8.34 16.33C12.66 16.33 16.17 12.82 16.17 8.5C16.17 4.18 12.66 0.670004 8.34 0.670004Z"/>
</mask>
<path d="M8.34 16.84C3.74 16.84 0 13.1 0 8.5C0 3.9 3.74 0.160004 8.34 0.160004C12.94 0.160004 16.68 3.9 16.68 8.5C16.68 13.1 12.94 16.84 8.34 16.84ZM8.34 0.670004C4.02 0.670004 0.51 4.18 0.51 8.5C0.51 12.82 4.02 16.33 8.34 16.33C12.66 16.33 16.17 12.82 16.17 8.5C16.17 4.18 12.66 0.670004 8.34 0.670004Z" fill="#070707"/>
<path d="M8.34 15.84C4.29228 15.84 1 12.5477 1 8.5H-1C-1 13.6523 3.18772 17.84 8.34 17.84V15.84ZM1 8.5C1 4.45229 4.29228 1.16 8.34 1.16V-0.839996C3.18772 -0.839996 -1 3.34772 -1 8.5H1ZM8.34 1.16C12.3877 1.16 15.68 4.45229 15.68 8.5H17.68C17.68 3.34772 13.4923 -0.839996 8.34 -0.839996V1.16ZM15.68 8.5C15.68 12.5477 12.3877 15.84 8.34 15.84V17.84C13.4923 17.84 17.68 13.6523 17.68 8.5H15.68ZM8.34 -0.329996C3.46772 -0.329996 -0.49 3.62772 -0.49 8.5H1.51C1.51 4.73229 4.57228 1.67 8.34 1.67V-0.329996ZM-0.49 8.5C-0.49 13.3723 3.46772 17.33 8.34 17.33V15.33C4.57228 15.33 1.51 12.2677 1.51 8.5H-0.49ZM8.34 17.33C13.2123 17.33 17.17 13.3723 17.17 8.5H15.17C15.17 12.2677 12.1077 15.33 8.34 15.33V17.33ZM17.17 8.5C17.17 3.62772 13.2123 -0.329996 8.34 -0.329996V1.67C12.1077 1.67 15.17 4.73229 15.17 8.5H17.17Z" fill="#2C3832" mask="url(#path-8-inside-3_45_982)"/>
</svg>
